<svg width="79" height="111" viewBox="0 0 79 111" fill="none" xmlns="http://www.w3.org/2000/svg">
<g clip-path="url(#clip0_92_23)">
<path d="M39.3155 110.72L7.2804 101.827L0.141357 21.7591H78.5856L71.4392 101.814L39.3155 110.72Z" fill="#264DE4"/>
<path d="M65.3211 96.7166L71.4279 28.3055H39.3635V103.913L65.3211 96.7166Z" fill="#2965F1"/>
<path d="M16.5072 58.0017L17.3873 67.8217H39.3634V58.0017H16.5072ZM14.7385 38.1259L15.6312 47.9459H39.3634V38.1259H14.7385ZM39.3634 83.5053L39.3204 83.5166L28.3835 80.5636L27.6842 72.7318H17.8261L19.2018 88.1507L39.3182 93.7345L39.3634 93.7222V83.5053Z" fill="#EBEBEB"/>
<path d="M18.6028 0H30.4966V4.97378H23.5768V9.94757H30.4972V14.921H18.6028V0ZM32.8756 0H44.7697V4.325H37.8496V5.18994H44.7697V15.1375H32.8759V10.5957H39.796V9.73079H32.8753L32.8756 0ZM47.1488 0H59.0429V4.325H52.1228V5.18994H59.0429V15.1375H47.1488V10.5957H54.0689V9.73079H47.1491L47.1488 0Z" fill="white"/>
<path d="M62.1569 58.0017L63.9296 38.1259H39.3297V47.9459H53.1674L52.2738 58.0017H39.3297V67.8217H51.4224L50.2822 80.5575L39.3293 83.5136V93.7299L59.4618 88.1507L59.6094 86.4915L61.9174 60.6387L62.1569 58.0017Z" fill="white"/>
</g>
<defs>
<clipPath id="clip0_92_23">
<rect width="78.73" height="111" fill="white" transform="translate(-0.00158691)"/>
</clipPath>
</defs>
</svg>
