<svg width="40" height="41" viewBox="0 0 40 41" fill="none" xmlns="http://www.w3.org/2000/svg">
<path d="M12.405 9.41666C13.47 9.41666 14.455 9.49999 15.355 9.74666C16.2567 9.91166 16.995 10.2417 17.65 10.6533C18.3067 11.0667 18.7984 11.6433 19.125 12.385C19.4534 13.1267 19.6184 14.035 19.6184 15.0233C19.6184 16.1783 19.3717 17.1667 18.7984 17.9083C18.3067 18.6517 17.4867 19.31 16.5034 19.805C17.8967 20.2183 18.9617 20.96 19.6184 21.95C20.2734 22.9383 20.6834 24.175 20.6834 25.5767C20.6834 26.7317 20.4367 27.72 20.0267 28.545C19.6184 29.37 18.9617 30.1117 18.2234 30.6067C17.4213 31.1372 16.5347 31.5272 15.6017 31.76C14.6184 32.0083 13.635 32.1733 12.6517 32.1733H1.66669V9.41666H12.405ZM11.7484 18.65C12.65 18.65 13.3884 18.4033 13.9617 17.9917C14.535 17.58 14.7817 16.8367 14.7817 15.93C14.7817 15.435 14.6984 14.9417 14.535 14.6117C14.3717 14.2817 14.125 14.0333 13.7984 13.7867C13.47 13.6217 13.1417 13.4567 12.7317 13.375C12.3217 13.2917 11.9134 13.2917 11.42 13.2917H6.66669V18.6517H11.75L11.7484 18.65ZM11.995 28.38C12.4867 28.38 12.9784 28.2967 13.3884 28.215C13.7984 28.1317 14.2084 27.9683 14.535 27.72C14.869 27.4787 15.1484 27.1698 15.355 26.8133C15.5184 26.4017 15.6834 25.9067 15.6834 25.33C15.6834 24.175 15.355 23.35 14.7 22.7733C14.0434 22.2783 13.1417 22.0317 12.0767 22.0317H6.66669V28.3817L11.995 28.38ZM27.815 28.2967C28.47 28.9567 29.4534 29.2867 30.765 29.2867C31.6667 29.2867 32.4867 29.04 33.1417 28.6283C33.7984 28.1333 34.2084 27.6383 34.3717 27.145H38.3884C37.7317 29.1217 36.7484 30.5233 35.4384 31.4317C34.125 32.255 32.5684 32.75 30.6834 32.75C29.4773 32.7537 28.2814 32.5298 27.1584 32.09C26.1478 31.711 25.2466 31.0881 24.535 30.2767C23.7738 29.5176 23.2112 28.5829 22.8967 27.555C22.4867 26.4833 22.3217 25.33 22.3217 24.01C22.3217 22.7733 22.4867 21.62 22.8967 20.5467C23.2916 19.5139 23.8754 18.5638 24.6184 17.745C25.3669 16.9764 26.2571 16.3601 27.24 15.93C28.3345 15.4901 29.5038 15.266 30.6834 15.27C32.0767 15.27 33.3067 15.5183 34.3717 16.095C35.4384 16.6717 36.2567 17.3317 36.9117 18.3217C37.5684 19.2283 38.0617 20.3 38.3884 21.455C38.5517 22.6083 38.6334 23.7633 38.5517 25.0817H26.6667C26.6667 26.4017 27.1584 27.6383 27.815 28.2983V28.2967ZM32.9784 19.64C32.405 19.0633 31.5034 18.7333 30.4367 18.7333C29.7 18.7333 29.125 18.9 28.6334 19.1467C28.1417 19.3933 27.815 19.7233 27.4867 20.0533C27.1844 20.3719 26.9842 20.7735 26.9117 21.2067C26.83 21.62 26.7484 21.95 26.7484 22.2783H34.125C33.9617 21.0417 33.5517 20.2183 32.9784 19.64ZM25.765 10.9833H34.945V13.21H25.7667V10.9833H25.765Z" fill="white"/>
</svg>
