<svg width="86" height="76" viewBox="0 0 86 76" fill="none" xmlns="http://www.w3.org/2000/svg">
<g clip-path="url(#clip0_200_7)">
<path d="M70.1683 24.6079C69.2602 24.2964 68.3443 24.0077 67.4217 23.7423C67.5767 23.1089 67.7193 22.4833 67.846 21.8686C69.9253 11.7749 68.566 3.64328 63.923 0.965942C59.4713 -1.60072 52.191 1.07561 44.8383 7.47461C44.1137 8.10639 43.4051 8.75637 42.7133 9.42394C42.2502 8.98003 41.7789 8.54473 41.2997 8.11828C33.5937 1.27628 25.8697 -1.60739 21.2317 1.07761C16.784 3.65228 15.467 11.2966 17.339 20.8626C17.5252 21.81 17.7355 22.7525 17.9697 23.6893C16.8763 23.9999 15.8213 24.3306 14.8117 24.6826C5.77699 27.8326 0.00732422 32.7689 0.00732422 37.8893C0.00732422 43.1776 6.20132 48.4819 15.6113 51.6983C16.3742 51.958 17.1434 52.1986 17.9183 52.4199C17.6667 53.4288 17.4432 54.4446 17.2483 55.4659C15.4637 64.8659 16.8573 72.3296 21.293 74.8879C25.8743 77.5299 33.5637 74.8146 41.0507 68.2696C41.6578 67.7375 42.2515 67.1903 42.8313 66.6286C43.5805 67.3515 44.3497 68.0533 45.138 68.7333C52.3907 74.9739 59.5533 77.4939 63.9847 74.9286C68.5617 72.2789 70.0493 64.2609 68.118 54.5059C67.9658 53.7417 67.7952 52.9813 67.6063 52.2253C68.1463 52.0653 68.6763 51.9006 69.193 51.7293C78.9757 48.4883 85.3407 43.2483 85.3407 37.8893C85.3407 32.7503 79.3847 27.7806 70.1683 24.6079ZM68.0467 48.2693C67.58 48.4236 67.1013 48.5726 66.6133 48.7176C65.5333 45.2986 64.076 41.6633 62.2923 37.9069C63.9943 34.2403 65.3957 30.6513 66.4453 27.2546C67.3183 27.5073 68.1653 27.7736 68.982 28.0546C76.8787 30.7733 81.6953 34.7923 81.6953 37.8893C81.6953 41.1879 76.4933 45.4703 68.0467 48.2693ZM64.542 55.2139C65.396 59.5273 65.5177 63.4273 64.952 66.4763C64.444 69.2159 63.422 71.0423 62.158 71.7739C59.469 73.3306 53.718 71.3073 47.5157 65.9699C46.7824 65.3377 46.0669 64.6853 45.37 64.0133C47.7747 61.3836 50.1777 58.3266 52.523 54.9313C56.6483 54.5653 60.5457 53.9666 64.08 53.1496C64.2502 53.834 64.4043 54.5223 64.542 55.2139ZM29.0993 71.5049C26.472 72.4326 24.3793 72.4593 23.1143 71.7299C20.4227 70.1776 19.3037 64.1846 20.83 56.1459C21.0114 55.196 21.2192 54.2513 21.453 53.3129C24.9483 54.0863 28.8173 54.6423 32.9523 54.9776C35.3137 58.2999 37.786 61.3536 40.2777 64.0276C39.7481 64.54 39.2061 65.0393 38.652 65.5249C35.341 68.4189 32.0233 70.4723 29.0993 71.5049ZM16.7907 48.2489C12.6297 46.8266 9.19332 44.9783 6.83799 42.9613C4.72132 41.1489 3.65299 39.3493 3.65299 37.8893C3.65299 34.7819 8.28532 30.8186 16.0117 28.1249C16.9493 27.7983 17.9307 27.4899 18.949 27.2006C20.017 30.6739 21.4177 34.3056 23.108 37.9779C21.3957 41.7046 19.975 45.3943 18.8967 48.9086C18.1894 48.706 17.4871 48.4861 16.7907 48.2489ZM20.9167 20.1623C19.313 11.9666 20.378 5.78428 23.0583 4.23261C25.913 2.57994 32.2257 4.93627 38.8793 10.8443C39.3132 11.2304 39.74 11.6244 40.1597 12.0259C37.6803 14.6883 35.2307 17.7193 32.8903 21.0219C28.877 21.3939 25.0353 21.9913 21.5033 22.7916C21.2857 21.9203 21.0901 21.0434 20.9167 20.1623ZM57.7257 29.2516C56.8914 27.8106 56.0262 26.3877 55.1307 24.9839C57.8533 25.3283 60.462 25.7853 62.9117 26.3439C62.1763 28.7013 61.2597 31.1656 60.1807 33.6923C59.392 32.1959 58.5735 30.7153 57.7257 29.2516ZM42.715 14.6313C44.3963 16.4529 46.0803 18.4866 47.7367 20.6933C44.3767 20.5346 41.0111 20.5339 37.651 20.6913C39.309 18.5049 41.0073 16.4739 42.715 14.6313ZM27.608 29.2766C26.7708 30.7286 25.9676 32.1998 25.199 33.6893C24.1377 31.1716 23.2293 28.6959 22.4877 26.3053C24.9223 25.7606 27.5187 25.3153 30.224 24.9773C29.3185 26.3896 28.4462 27.8233 27.608 29.2766ZM30.3017 51.0606C27.5067 50.7486 24.8713 50.3263 22.4373 49.7963C23.1907 47.3629 24.119 44.8346 25.2033 42.2629C25.9749 43.7535 26.7815 45.2257 27.6223 46.6783C28.487 48.1716 29.3823 49.6343 30.3017 51.0606ZM42.8157 61.4039C41.0877 59.5399 39.3643 57.4776 37.6813 55.2596C39.3153 55.3236 40.981 55.3563 42.674 55.3563C44.4133 55.3563 46.1327 55.3173 47.825 55.2419C46.1633 57.4999 44.4857 59.5653 42.8157 61.4039ZM60.215 42.1316C61.3557 44.7316 62.317 47.2466 63.0803 49.6383C60.6063 50.2029 57.935 50.6576 55.1203 50.9953C56.0223 49.5655 56.8956 48.1178 57.74 46.6533C58.5984 45.1646 59.4236 43.657 60.215 42.1316ZM54.5823 44.8319C53.2897 47.0774 51.9244 49.2802 50.4887 51.4369C47.8879 51.6211 45.2813 51.7126 42.674 51.7113C40.0183 51.7113 37.4353 51.6286 34.948 51.4673C33.4747 49.3156 32.0834 47.1089 30.777 44.8519C29.4767 42.607 28.2625 40.3134 27.1363 37.9763C28.2596 35.6386 29.4705 33.344 30.7663 31.0973L30.766 31.0976C32.0613 28.8503 33.4415 26.6531 34.9037 24.5106C37.4413 24.3186 40.0437 24.2186 42.6737 24.2186C45.3157 24.2186 47.9217 24.3196 50.4587 24.5129C51.906 26.6522 53.2774 28.8419 54.5703 31.0779C55.8705 33.3197 57.0973 35.6031 58.249 37.9246C57.1092 40.2699 55.8862 42.5738 54.5823 44.8319ZM62.1023 4.12394C64.9597 5.77194 66.071 12.4176 64.2757 21.1326C64.161 21.6886 64.0323 22.2549 63.8923 22.8293C60.3517 22.0119 56.5073 21.4043 52.4823 21.0266C50.1377 17.6876 47.708 14.6519 45.269 12.0239C45.9082 11.4078 46.5626 10.8076 47.2317 10.2239C53.5317 4.74161 59.4197 2.57694 62.1023 4.12394ZM42.674 30.2693C46.8823 30.2693 50.294 33.6809 50.294 37.8893C50.294 42.0976 46.8823 45.5093 42.674 45.5093C38.4657 45.5093 35.054 42.0976 35.054 37.8893C35.054 33.6809 38.4657 30.2693 42.674 30.2693Z" fill="#00D8FF"/>
</g>
<defs>
<clipPath id="clip0_200_7">
<rect width="85.348" height="76" fill="white"/>
</clipPath>
</defs>
</svg>
