<svg width="121" height="31" viewBox="0 0 121 31" fill="none" xmlns="http://www.w3.org/2000/svg">
<g clip-path="url(#clip0_237_623)">
<path d="M21.9441 6.29712L19.994 28.1432L11.2283 30.5733L2.48665 28.1466L0.538574 6.29712H21.9441Z" fill="#E44D26"/>
<path d="M11.2424 28.7156L18.3256 26.7519L19.992 8.08344H11.2424V28.7156Z" fill="#F16529"/>
<path d="M7.44985 13.4433H11.2408V10.7635H4.52124L4.58535 11.4825L5.24402 18.8671H11.2408V16.1874H7.69478L7.44985 13.4433ZM8.05381 20.2071H5.36375L5.73915 24.4147L11.2284 25.9384L11.2408 25.9351V23.147L11.229 23.1501L8.24462 22.3443L8.05381 20.2071Z" fill="#EBEBEB"/>
<path d="M2.53076 0.359253H3.89257V1.70471H5.13834V0.359253H6.50024V4.43362H5.13843V3.06929H3.89266V4.43362H2.53085L2.53076 0.359253ZM8.29099 1.71041H7.09229V0.359253H10.8525V1.71041H9.65305V4.43362H8.29124V1.71041H8.29099ZM11.4493 0.359253H12.8692L13.7427 1.79088L14.6153 0.359253H16.0359V4.43362H14.6796V2.41414L13.7427 3.8628H13.7192L12.7817 2.41414V4.43362H11.4493V0.359253ZM16.7136 0.359253H18.0758V3.08691H19.9909V4.43362H16.7135V0.359253H16.7136Z" fill="#EBEBEB"/>
<path d="M11.232 18.8671H14.5318L14.2207 22.3426L11.2319 23.1493V25.9372L16.7256 24.4147L16.7659 23.9619L17.3957 16.907L17.461 16.1874H11.232V18.8671ZM11.232 13.4368V13.4433H17.7049L17.7586 12.841L17.8807 11.4825L17.9448 10.7635H11.232V13.4368Z" fill="white"/>
</g>
<g clip-path="url(#clip1_237_623)">
<path d="M41.9848 30.5733L33.2428 28.1466L31.2947 6.29712H52.7011L50.7509 28.1432L41.9848 30.5733Z" fill="#264DE4"/>
<path d="M49.0818 26.7519L50.7482 8.08344H41.9983V28.7156L49.0818 26.7519Z" fill="#2965F1"/>
<path d="M35.7602 16.1874L36.0004 18.8671H41.9974V16.1874H35.7602ZM35.2776 10.7635L35.5212 13.4433H41.9974V10.7635H35.2776ZM41.9974 23.147L41.9857 23.1501L39.0011 22.3443L38.8103 20.2071H36.1201L36.4955 24.4147L41.9851 25.9384L41.9974 25.9351V23.147Z" fill="#EBEBEB"/>
<path d="M36.3323 0.359253H39.5779V1.71654H37.6896V3.07382H39.5781V4.43102H36.3323V0.359253ZM40.2272 0.359253H43.4729V1.53949H41.5845V1.77552H43.4729V4.49009H40.2272V3.2507H42.1156V3.01466H40.2271L40.2272 0.359253ZM44.1221 0.359253H47.3679V1.53949H45.4795V1.77552H47.3679V4.49009H44.1221V3.2507H46.0105V3.01466H44.1222L44.1221 0.359253Z" fill="white"/>
<path d="M48.2189 16.1874L48.7026 10.7635H41.9896V13.4433H45.7657L45.5219 16.1874H41.9896V18.8671H45.2895L44.9784 22.3426L41.9895 23.1493V25.9372L47.4834 24.4147L47.5237 23.9619L48.1535 16.907L48.2189 16.1874Z" fill="white"/>
</g>
<g clip-path="url(#clip2_237_623)">
<path d="M62.0127 4.0683H85.1942V27.2498H62.0127V4.0683Z" fill="#F7DF1E"/>
<path d="M68.1078 23.4406L69.8817 22.367C70.224 22.9738 70.5353 23.4872 71.2821 23.4872C71.9979 23.4872 72.4493 23.2072 72.4493 22.1181V14.711H74.6277V22.1489C74.6277 24.4052 73.3051 25.4322 71.3754 25.4322C69.6328 25.4322 68.6212 24.5297 68.1077 23.4404M75.811 23.2071L77.5847 22.1802C78.0517 22.9427 78.6586 23.5029 79.7322 23.5029C80.6349 23.5029 81.2105 23.0516 81.2105 22.4291C81.2105 21.6822 80.6191 21.4176 79.6232 20.9821L79.0788 20.7485C77.507 20.0795 76.4645 19.2392 76.4645 17.4653C76.4645 15.8313 77.7093 14.5864 79.6545 14.5864C81.0394 14.5864 82.0353 15.0689 82.751 16.3293L81.0548 17.4186C80.6813 16.7495 80.2769 16.485 79.6544 16.485C79.0164 16.485 78.6118 16.8896 78.6118 17.4186C78.6118 18.0722 79.0164 18.3368 79.95 18.7414L80.4945 18.9748C82.3463 19.7685 83.3889 20.5776 83.3889 22.3981C83.3889 24.3589 81.8484 25.4325 79.7788 25.4325C77.756 25.4325 76.4488 24.4677 75.8109 23.2072" fill="black"/>
</g>
<g clip-path="url(#clip3_237_623)">
<path d="M115.87 11.5742C115.593 11.4792 115.314 11.3911 115.033 11.3102C115.08 11.117 115.123 10.9261 115.162 10.7387C115.796 7.65989 115.382 5.17957 113.965 4.36293C112.608 3.58005 110.387 4.39638 108.144 6.3482C107.923 6.54091 107.707 6.73917 107.496 6.94279C107.355 6.80739 107.211 6.67461 107.065 6.54453C104.714 4.45759 102.358 3.57801 100.944 4.39699C99.5872 5.18231 99.1855 7.51399 99.7565 10.4318C99.8133 10.7208 99.8774 11.0083 99.9488 11.294C99.6153 11.3888 99.2935 11.4896 98.9856 11.597C96.2298 12.5578 94.47 14.0635 94.47 15.6253C94.47 17.2383 96.3593 18.8563 99.2295 19.8373C99.4622 19.9165 99.6968 19.9899 99.9332 20.0574C99.8564 20.3652 99.7883 20.675 99.7288 20.9865C99.1845 23.8537 99.6095 26.1303 100.963 26.9106C102.36 27.7165 104.705 26.8882 106.989 24.8919C107.174 24.7296 107.355 24.5627 107.532 24.3914C107.761 24.6118 107.995 24.8259 108.236 25.0333C110.448 26.9368 112.633 27.7055 113.984 26.923C115.38 26.1148 115.834 23.6692 115.245 20.6937C115.199 20.4606 115.147 20.2286 115.089 19.998C115.254 19.9492 115.415 19.899 115.573 19.8468C118.557 18.8582 120.498 17.2599 120.498 15.6253C120.498 14.0578 118.682 12.5419 115.87 11.5742ZM115.223 18.7914C115.081 18.8385 114.935 18.8839 114.786 18.9281C114.457 17.8853 114.012 16.7764 113.468 15.6307C113.987 14.5123 114.415 13.4175 114.735 12.3815C115.001 12.4586 115.259 12.5398 115.509 12.6255C117.917 13.4548 119.386 14.6806 119.386 15.6253C119.386 16.6314 117.8 17.9376 115.223 18.7914ZM114.154 20.9096C114.415 22.2253 114.452 23.4149 114.279 24.3449C114.124 25.1805 113.813 25.7376 113.427 25.9608C112.607 26.4356 110.853 25.8184 108.961 24.1904C108.737 23.9976 108.519 23.7986 108.306 23.5936C109.04 22.7915 109.773 21.8591 110.488 20.8234C111.747 20.7118 112.935 20.5292 114.013 20.28C114.065 20.4887 114.112 20.6987 114.154 20.9096ZM103.344 25.8787C102.542 26.1617 101.904 26.1698 101.518 25.9474C100.697 25.4739 100.356 23.6459 100.821 21.1939C100.877 20.9042 100.94 20.616 101.011 20.3298C102.077 20.5657 103.258 20.7353 104.519 20.8376C105.239 21.8509 105.993 22.7824 106.753 23.598C106.592 23.7543 106.426 23.9066 106.257 24.0547C105.247 24.9374 104.235 25.5637 103.344 25.8787ZM99.5892 18.7852C98.32 18.3513 97.2719 17.7876 96.5535 17.1723C95.9078 16.6195 95.582 16.0706 95.582 15.6253C95.582 14.6775 96.9949 13.4686 99.3516 12.647C99.6376 12.5473 99.9369 12.4533 100.248 12.365C100.573 13.4245 101.001 14.5322 101.516 15.6523C100.994 16.789 100.56 17.9145 100.232 18.9864C100.016 18.9246 99.8017 18.8575 99.5892 18.7852ZM100.848 10.2182C100.359 7.71835 100.683 5.83262 101.501 5.35933C102.372 4.85523 104.297 5.57396 106.327 7.37602C106.459 7.49379 106.589 7.61396 106.717 7.73645C105.961 8.54851 105.214 9.47303 104.5 10.4804C103.276 10.5939 102.104 10.7761 101.027 11.0202C100.96 10.7544 100.901 10.487 100.848 10.2182ZM112.075 12.9906C111.821 12.5511 111.557 12.1171 111.284 11.6889C112.114 11.7939 112.91 11.9333 113.657 12.1037C113.433 12.8228 113.153 13.5744 112.824 14.3451C112.583 13.8887 112.334 13.4371 112.075 12.9906ZM107.497 8.53113C108.009 9.08677 108.523 9.70708 109.028 10.3802C108.003 10.3318 106.977 10.3316 105.952 10.3795C106.458 9.71267 106.976 9.09318 107.497 8.53113ZM102.889 12.9982C102.633 13.4411 102.388 13.8899 102.154 14.3442C101.83 13.5763 101.553 12.8211 101.327 12.0919C102.07 11.9258 102.861 11.79 103.687 11.6869C103.41 12.1177 103.144 12.555 102.889 12.9982ZM103.71 19.6428C102.858 19.5476 102.054 19.4188 101.312 19.2572C101.541 18.5149 101.824 17.7437 102.155 16.9593C102.391 17.414 102.637 17.863 102.893 18.3061C103.157 18.7616 103.43 19.2077 103.71 19.6428ZM107.527 22.7977C107 22.2292 106.475 21.6001 105.961 20.9236C106.46 20.9431 106.968 20.9531 107.484 20.9531C108.015 20.9531 108.539 20.9412 109.055 20.9182C108.548 21.6069 108.037 22.2369 107.527 22.7977ZM112.834 16.9193C113.182 17.7123 113.476 18.4795 113.708 19.209C112.954 19.3812 112.139 19.5199 111.281 19.6229C111.556 19.1867 111.822 18.7452 112.08 18.2985C112.341 17.8444 112.593 17.3846 112.834 16.9193ZM111.116 17.7429C110.722 18.4278 110.306 19.0997 109.868 19.7576C109.074 19.8138 108.279 19.8417 107.484 19.8413C106.674 19.8413 105.886 19.8161 105.128 19.7668C104.678 19.1105 104.254 18.4374 103.855 17.749C103.459 17.0643 103.088 16.3647 102.745 15.6518C103.087 14.9388 103.457 14.2389 103.852 13.5536L103.852 13.5537C104.247 12.8682 104.668 12.198 105.114 11.5445C105.888 11.486 106.682 11.4555 107.484 11.4555C108.29 11.4555 109.085 11.4863 109.859 11.5452C110.3 12.1978 110.718 12.8657 111.113 13.5477C111.509 14.2315 111.884 14.928 112.235 15.6361C111.887 16.3514 111.514 17.0541 111.116 17.7429ZM113.41 5.32618C114.282 5.82886 114.621 7.85592 114.073 10.5142C114.038 10.6838 113.999 10.8565 113.956 11.0317C112.876 10.7824 111.704 10.597 110.476 10.4818C109.761 9.46337 109.02 8.53743 108.276 7.73584C108.471 7.5479 108.67 7.36483 108.874 7.1868C110.796 5.51458 112.592 4.85432 113.41 5.32618ZM107.484 13.301C108.768 13.301 109.808 14.3417 109.808 15.6253C109.808 16.9089 108.768 17.9495 107.484 17.9495C106.201 17.9495 105.16 16.9089 105.16 15.6253C105.16 14.3417 106.201 13.301 107.484 13.301Z" fill="#00D8FF"/>
</g>
<defs>
<clipPath id="clip0_237_623">
<rect width="21.4835" height="30.2905" fill="white" transform="translate(0.5 0.359253)"/>
</clipPath>
<clipPath id="clip1_237_623">
<rect width="21.4844" height="30.2905" fill="white" transform="translate(31.2561 0.359253)"/>
</clipPath>
<clipPath id="clip2_237_623">
<rect width="23.1815" height="23.1815" fill="white" transform="translate(62.0127 4.0683)"/>
</clipPath>
<clipPath id="clip3_237_623">
<rect width="26.0328" height="23.1815" fill="white" transform="translate(94.467 4.0683)"/>
</clipPath>
</defs>
</svg>
